<?xml version="1.0" encoding="UTF-8" standalone="no"?>
<!-- Created with Inkscape (http://www.inkscape.org/) -->

<svg
   version="1.1"
   id="svg2"
   width="624"
   height="624"
   viewBox="0 0 624 624"
   sodipodi:docname="Logo AI.ai"
   xmlns:inkscape="http://www.inkscape.org/namespaces/inkscape"
   xmlns:sodipodi="http://sodipodi.sourceforge.net/DTD/sodipodi-0.dtd"
   xmlns="http://www.w3.org/2000/svg"
   xmlns:svg="http://www.w3.org/2000/svg">
  <defs
     id="defs6">
    <clipPath
       clipPathUnits="userSpaceOnUse"
       id="clipPath20">
      <path
         d="M 0,468 H 468 V 0 H 0 Z"
         id="path18" />
    </clipPath>
  </defs>
  <sodipodi:namedview
     id="namedview4"
     pagecolor="#ffffff"
     bordercolor="#000000"
     borderopacity="0.25"
     inkscape:showpageshadow="2"
     inkscape:pageopacity="0.0"
     inkscape:pagecheckerboard="0"
     inkscape:deskcolor="#d1d1d1" />
  <g
     id="g8"
     inkscape:groupmode="layer"
     inkscape:label="Logo AI"
     transform="matrix(1.3333333,0,0,-1.3333333,0,624)">
    <g
       id="g10"
       transform="translate(81.0977,231.8818)">
      <path
         d="M 0,0 V 6.534 H 5.005 V 32.145 H 0 v 6.535 h 19.403 l 8.485,-22.66 8.536,22.66 H 56.199 V 32.145 H 51.194 V 6.534 h 5.005 V 0 H 36.734 v 6.534 h 4.671 V 32.145 H 40.488 L 28.503,0 H 24.332 L 12.208,32.145 H 11.29 V 6.534 h 5.061 V 0 Z"
         style="fill:#d41317;fill-opacity:1;fill-rule:nonzero;stroke:none"
         id="path12" />
    </g>
    <g
       id="g14">
      <g
         id="g16"
         clip-path="url(#clipPath20)">
        <g
           id="g22"
           transform="translate(158.625,241.8921)">
          <path
             d="m 0,0 c -2.28,1.78 -4.588,2.669 -6.924,2.669 -1.467,0 -2.69,-0.427 -3.671,-1.278 -0.983,-0.852 -1.473,-1.957 -1.473,-3.309 0,-1.262 0.431,-2.319 1.293,-3.171 0.862,-0.851 2.033,-1.279 3.517,-1.279 2.559,0 4.978,1.074 7.258,3.226 z M 9.761,-5.311 V -10.01 H 0.528 v 3.281 c -2.558,-2.485 -5.415,-3.727 -8.564,-3.727 -2.447,0 -4.575,0.796 -6.382,2.392 -1.808,1.595 -2.711,3.632 -2.711,6.118 0,2.502 0.959,4.577 2.878,6.228 1.918,1.652 4.23,2.475 6.938,2.475 2.52,0 4.957,-0.761 7.313,-2.28 v 2.669 c 0,1.374 -0.132,2.43 -0.389,3.17 -0.261,0.741 -0.869,1.409 -1.821,2.003 -0.957,0.594 -2.205,0.889 -3.741,0.889 -2.652,0 -4.57,-1.056 -5.756,-3.169 l -5.061,1.335 c 2.242,4.188 6.118,6.284 11.623,6.284 2.02,0 3.769,-0.275 5.242,-0.821 1.474,-0.545 2.572,-1.251 3.296,-2.113 0.723,-0.862 1.209,-1.793 1.46,-2.794 0.25,-1.002 0.375,-2.597 0.375,-4.784 V -5.311 Z"
             style="fill:#d41317;fill-opacity:1;fill-rule:nonzero;stroke:none"
             id="path24" />
        </g>
        <g
           id="g26"
           transform="translate(179.6196,244.9512)">
          <path
             d="m 0,0 c 0,-1.484 0.306,-2.903 0.918,-4.255 0.611,-1.352 1.585,-2.489 2.919,-3.406 1.335,-0.918 2.899,-1.377 4.7,-1.377 2.52,0 4.602,0.845 6.243,2.531 1.64,1.686 2.461,4.004 2.461,6.952 0,2.874 -0.859,5.117 -2.573,6.729 C 12.952,8.787 11.001,9.593 8.815,9.593 6.479,9.593 4.425,8.717 2.656,6.966 0.883,5.214 0,2.892 0,0 M -5.2,-20.438 V 9.148 h -4.532 v 4.7 H 0.083 V 9.621 c 2.632,3.097 5.819,4.644 9.566,4.644 3.782,0 6.911,-1.296 9.385,-3.893 2.475,-2.597 3.713,-5.968 3.713,-10.122 0,-4.355 -1.346,-7.796 -4.033,-10.316 -2.69,-2.521 -5.749,-3.783 -9.176,-3.783 -3.559,0 -6.712,1.373 -9.455,4.116 v -10.705 h 5.229 v -4.7 h -15.434 v 4.7 z"
             style="fill:#d41317;fill-opacity:1;fill-rule:nonzero;stroke:none"
             id="path28" />
        </g>
        <g
           id="g30"
           transform="translate(210.625,236.5811)">
          <path
             d="M 0,0 V 29.281 H -4.783 V 33.98 H 5.284 V 0 H 9.399 V -4.699 H -4.783 V 0 Z"
             style="fill:#d41317;fill-opacity:1;fill-rule:nonzero;stroke:none"
             id="path32" />
        </g>
        <g
           id="g34"
           transform="translate(246.4131,247.8428)">
          <path
             d="M 0,0 C -0.372,1.891 -1.355,3.601 -2.947,5.131 -4.543,6.66 -6.5,7.425 -8.814,7.425 c -2.114,0 -3.922,-0.692 -5.423,-2.072 C -15.739,3.973 -16.656,2.187 -16.99,0 Z m 5.45,-3.837 h -22.635 c 0.334,-2.486 1.314,-4.495 2.948,-6.035 1.63,-1.539 3.716,-2.308 6.257,-2.308 3.687,0 6.607,1.485 8.759,4.45 L 5.45,-9.788 c -1.522,-2.353 -3.496,-4.102 -5.923,-5.241 -2.429,-1.141 -4.97,-1.711 -7.619,-1.711 -4.116,0 -7.633,1.283 -10.553,3.851 -2.919,2.569 -4.379,6.031 -4.379,10.387 0,4.132 1.421,7.535 4.268,10.205 2.843,2.67 6.111,4.004 9.802,4.004 3.615,0 6.89,-1.303 9.83,-3.907 C 3.813,5.197 5.339,1.317 5.45,-3.837"
             style="fill:#d41317;fill-opacity:1;fill-rule:nonzero;stroke:none"
             id="path36" />
        </g>
        <g
           id="g38"
           transform="translate(265.8789,252.3062)">
          <path
             d="M 0,0 12.401,13.417 H 7.98 v 4.838 H 23.136 V 13.417 H 19.02 L 7.111,0 19.354,-15.586 h 4.143 v -4.838 H 7.786 v 4.838 h 4.171 z m -6.034,-15.586 v 29.003 h -4.839 v 4.838 H 4.782 v -4.838 h -4.977 v -29.003 h 4.449 v -4.838 h -15.127 v 4.838 z"
             style="fill:#d41317;fill-opacity:1;fill-rule:nonzero;stroke:none"
             id="path40" />
        </g>
        <g
           id="g42"
           transform="translate(296.1885,245.354)">
          <path
             d="m 0,0 c 0,-2.655 0.827,-4.835 2.489,-6.531 1.658,-1.7 3.685,-2.548 6.075,-2.548 2.427,0 4.464,0.859 6.105,2.576 1.641,1.713 2.461,3.882 2.461,6.503 0,2.638 -0.835,4.811 -2.503,6.518 C 12.958,8.224 10.936,9.079 8.564,9.079 6.08,9.079 4.032,8.207 2.42,6.462 0.807,4.717 0,2.565 0,0 m -5.589,-0.014 c 0,4.154 1.369,7.56 4.115,10.22 2.743,2.659 6.09,3.99 10.038,3.99 3.874,0 7.203,-1.311 9.984,-3.935 2.78,-2.624 4.171,-6.048 4.171,-10.275 0,-4.226 -1.387,-7.657 -4.157,-10.289 -2.774,-2.631 -6.104,-3.948 -9.998,-3.948 -4.003,0 -7.365,1.334 -10.08,4.004 -2.717,2.67 -4.073,6.08 -4.073,10.233"
             style="fill:#d41317;fill-opacity:1;fill-rule:nonzero;stroke:none"
             id="path44" />
        </g>
        <g
           id="g46"
           transform="translate(329.2236,245.3682)">
          <path
             d="m 0,0 c 0,-2.965 0.838,-5.245 2.517,-6.841 1.675,-1.595 3.684,-2.391 6.02,-2.391 2.26,0 4.269,0.837 6.021,2.516 1.752,1.679 2.628,4.001 2.628,6.966 0,2.986 -0.898,5.238 -2.684,6.757 C 12.712,8.526 10.706,9.288 8.481,9.288 6.09,9.288 4.077,8.395 2.447,6.604 0.813,4.814 0,2.614 0,0 m 27.308,-8.787 v -4.699 H 17.186 v 3.948 c -2.635,-2.93 -5.84,-4.394 -9.623,-4.394 -3.502,0 -6.583,1.196 -9.231,3.588 -2.652,2.391 -3.977,5.794 -3.977,10.205 0,4.431 1.363,7.925 4.088,10.483 2.725,2.559 5.801,3.838 9.232,3.838 3.633,0 6.803,-1.446 9.511,-4.338 v 10.65 h -5.173 v 4.699 h 10.456 v -33.98 z"
             style="fill:#d41317;fill-opacity:1;fill-rule:nonzero;stroke:none"
             id="path48" />
        </g>
        <g
           id="g50"
           transform="translate(381.752,247.8428)">
          <path
             d="M 0,0 C -0.372,1.891 -1.355,3.601 -2.947,5.131 -4.543,6.66 -6.5,7.425 -8.814,7.425 c -2.114,0 -3.921,-0.692 -5.423,-2.072 C -15.738,3.973 -16.656,2.187 -16.99,0 Z m 5.45,-3.837 h -22.635 c 0.334,-2.486 1.314,-4.495 2.948,-6.035 1.631,-1.539 3.716,-2.308 6.257,-2.308 3.688,0 6.607,1.485 8.759,4.45 L 5.45,-9.788 c -1.522,-2.353 -3.496,-4.102 -5.923,-5.241 -2.429,-1.141 -4.97,-1.711 -7.619,-1.711 -4.115,0 -7.633,1.283 -10.553,3.851 -2.919,2.569 -4.379,6.031 -4.379,10.387 0,4.132 1.421,7.535 4.268,10.205 2.844,2.67 6.11,4.004 9.802,4.004 3.615,0 6.89,-1.303 9.83,-3.907 C 3.813,5.197 5.34,1.317 5.45,-3.837"
             style="fill:#d41317;fill-opacity:1;fill-rule:nonzero;stroke:none"
             id="path52" />
        </g>
        <g
           id="g54"
           transform="translate(153.8823,202.8311)">
          <path
             d="M 0,0 1.574,-0.88 C 1.22,-2.222 0.507,-3.265 -0.567,-4.001 -1.644,-4.741 -2.878,-5.11 -4.275,-5.11 c -1.829,0 -3.299,0.594 -4.405,1.783 -1.109,1.185 -1.661,2.656 -1.661,4.404 0,1.919 0.556,3.444 1.668,4.578 1.112,1.137 2.566,1.703 4.356,1.703 1.581,0 2.909,-0.431 3.986,-1.293 V 7.171 H 1.234 V 3.284 h -1.565 c -0.347,0.789 -0.882,1.398 -1.605,1.828 -0.727,0.432 -1.488,0.647 -2.288,0.647 -1.202,0 -2.193,-0.431 -2.964,-1.3 -0.775,-0.869 -1.161,-1.967 -1.161,-3.295 0,-1.362 0.413,-2.475 1.241,-3.337 0.83,-0.862 1.811,-1.293 2.947,-1.293 0.932,0 1.78,0.299 2.544,0.897 C -0.852,-1.968 -0.313,-1.112 0,0"
             style="fill:#1d1d1b;fill-opacity:1;fill-rule:nonzero;stroke:none"
             id="path56" />
        </g>
        <g
           id="g58"
           transform="translate(163.5767,205.0723)">
          <path
             d="M 0,0 H 1.425 C 2.117,0 2.624,0.046 2.951,0.136 3.278,0.227 3.545,0.407 3.754,0.682 3.962,0.956 4.067,1.328 4.067,1.79 4.067,2.184 3.962,2.517 3.75,2.788 3.539,3.063 3.278,3.233 2.968,3.306 2.659,3.379 2.186,3.414 1.547,3.414 H 0 Z M -1.825,-5.648 V 3.414 H -3.483 V 4.93 H 1.425 C 2.45,4.93 3.264,4.85 3.869,4.689 4.47,4.529 4.967,4.192 5.363,3.682 5.756,3.167 5.954,2.531 5.954,1.767 c 0,-1.6 -0.83,-2.608 -2.492,-3.018 L 5.596,-5.648 H 7.073 V -7.16 H 4.456 L 1.703,-1.512 H 0 V -5.648 H 1.547 V -7.16 h -5.03 v 1.512 z"
             style="fill:#1d1d1b;fill-opacity:1;fill-rule:nonzero;stroke:none"
             id="path60" />
        </g>
        <g
           id="g62"
           transform="translate(176.2256,199.4238)">
          <path
             d="m 0,0 v 9.063 h -1.564 v 1.515 H 8.481 V 6.935 H 6.986 V 9.063 H 1.825 V 5.468 H 6.319 V 3.952 H 1.825 V 0 H 6.986 V 2.201 H 8.481 V -1.512 H -1.564 V 0 Z"
             style="fill:#1d1d1b;fill-opacity:1;fill-rule:nonzero;stroke:none"
             id="path64" />
        </g>
        <g
           id="g66"
           transform="translate(196.8379,203.5781)">
          <path
             d="M 0,0 -1.609,5.058 H -1.776 L -3.452,0 Z M 0.455,-1.418 H -3.9 l -0.925,-2.736 h 1.467 V -5.666 H -8.12 v 1.512 h 1.463 l 3.299,9.212 h -1.46 v 1.366 h 6.18 V 5.058 h -1.511 l 3.381,-9.212 h 1.352 v -1.512 h -4.733 v 1.512 h 1.501 z"
             style="fill:#1d1d1b;fill-opacity:1;fill-rule:nonzero;stroke:none"
             id="path68" />
        </g>
        <g
           id="g70"
           transform="translate(208.6836,199.4238)">
          <path
             d="M 0,0 V 9.063 H -2.492 V 5.979 h -1.495 v 4.599 H 5.805 V 5.979 H 4.311 V 9.063 H 1.825 V 0 H 3.399 V -1.512 H -1.546 V 0 Z"
             style="fill:#1d1d1b;fill-opacity:1;fill-rule:nonzero;stroke:none"
             id="path72" />
        </g>
        <g
           id="g74"
           transform="translate(220.1162,199.4238)">
          <path
             d="m 0,0 v 9.063 h -1.304 v 1.515 H 3.128 V 9.063 H 1.825 V 0 H 3.128 V -1.512 H -1.304 V 0 Z"
             style="fill:#1d1d1b;fill-opacity:1;fill-rule:nonzero;stroke:none"
             id="path76" />
        </g>
        <g
           id="g78"
           transform="translate(232.9004,197.791)">
          <path
             d="m 0,0 -4.06,10.695 h -1.498 v 1.516 h 4.773 V 10.695 H -2.183 L 0.894,2.582 3.89,10.695 H 2.482 v 1.516 h 4.64 V 10.695 H 5.655 L 1.676,0 Z"
             style="fill:#1d1d1b;fill-opacity:1;fill-rule:nonzero;stroke:none"
             id="path80" />
        </g>
        <g
           id="g82"
           transform="translate(245.5879,199.4238)">
          <path
             d="m 0,0 v 9.063 h -1.564 v 1.515 H 8.481 V 6.935 H 6.986 V 9.063 H 1.825 V 5.468 H 6.319 V 3.952 H 1.825 V 0 H 6.986 V 2.201 H 8.481 V -1.512 H -1.564 V 0 Z"
             style="fill:#1d1d1b;fill-opacity:1;fill-rule:nonzero;stroke:none"
             id="path84" />
        </g>
        <g
           id="g86"
           transform="translate(258.8379,197.9121)">
          <path
             d="M 0,0 V 4.387 H 1.512 V 3.319 c 0.723,-1.313 1.673,-1.97 2.84,-1.97 0.598,0 1.102,0.18 1.512,0.546 C 6.277,2.26 6.482,2.739 6.482,3.33 6.482,3.9 6.312,4.313 5.979,4.567 5.642,4.817 5.009,5.068 4.074,5.318 2.993,5.606 2.19,5.882 1.669,6.139 1.147,6.396 0.73,6.765 0.421,7.244 0.111,7.72 -0.045,8.287 -0.045,8.94 c 0,1.015 0.337,1.825 1.012,2.43 0.678,0.605 1.522,0.907 2.544,0.907 0.967,0 1.863,-0.313 2.694,-0.938 v 0.809 H 7.682 V 8.481 H 6.205 V 9.322 C 5.582,10.258 4.73,10.724 3.64,10.724 2.979,10.724 2.472,10.57 2.12,10.268 1.766,9.962 1.589,9.601 1.589,9.177 1.589,8.854 1.679,8.568 1.859,8.321 2.037,8.075 2.267,7.894 2.545,7.779 2.822,7.661 3.372,7.501 4.188,7.293 5.256,7.015 6.027,6.754 6.507,6.514 6.99,6.274 7.404,5.874 7.751,5.312 8.099,4.748 8.272,4.102 8.272,3.372 8.272,2.343 7.908,1.488 7.182,0.817 6.455,0.146 5.555,-0.191 4.484,-0.191 3.382,-0.191 2.392,0.205 1.512,1.001 V 0 Z"
             style="fill:#1d1d1b;fill-opacity:1;fill-rule:nonzero;stroke:none"
             id="path88" />
        </g>
        <g
           id="g90"
           transform="translate(281.1016,199.4238)">
          <path
             d="m 0,0 v 9.063 h -1.304 v 1.515 H 3.128 V 9.063 H 1.824 V 0 H 3.128 V -1.512 H -1.304 V 0 Z"
             style="fill:#1d1d1b;fill-opacity:1;fill-rule:nonzero;stroke:none"
             id="path92" />
        </g>
        <g
           id="g94"
           transform="translate(290.1807,199.4238)">
          <path
             d="m 0,0 v 9.063 h -1.731 v 1.515 H 2.395 L 7.699,1.179 V 9.063 H 5.985 v 1.515 h 4.964 V 9.063 H 9.166 V -1.633 H 7.292 L 1.494,8.684 V 0 H 3.222 V -1.512 H -1.731 V 0 Z"
             style="fill:#1d1d1b;fill-opacity:1;fill-rule:nonzero;stroke:none"
             id="path96" />
        </g>
        <g
           id="g98"
           transform="translate(315.8193,202.8311)">
          <path
             d="M 0,0 1.574,-0.88 C 1.22,-2.222 0.507,-3.265 -0.567,-4.001 -1.645,-4.741 -2.878,-5.11 -4.275,-5.11 c -1.829,0 -3.299,0.594 -4.405,1.783 -1.108,1.185 -1.661,2.656 -1.661,4.404 0,1.919 0.556,3.444 1.668,4.578 1.112,1.137 2.566,1.703 4.356,1.703 1.581,0 2.909,-0.431 3.987,-1.293 V 7.171 H 1.233 V 3.284 H -0.33 c -0.348,0.789 -0.884,1.398 -1.607,1.828 -0.726,0.432 -1.487,0.647 -2.287,0.647 -1.202,0 -2.193,-0.431 -2.964,-1.3 C -7.964,3.59 -8.35,2.492 -8.35,1.164 c 0,-1.362 0.414,-2.475 1.242,-3.337 0.83,-0.862 1.81,-1.293 2.947,-1.293 0.932,0 1.78,0.299 2.545,0.897 C -0.852,-1.968 -0.313,-1.112 0,0"
             style="fill:#1d1d1b;fill-opacity:1;fill-rule:nonzero;stroke:none"
             id="path100" />
        </g>
        <path
           d="m 322.621,200.05 h 2.138 v -2.138 h -2.138 z"
           style="fill:#1d1d1b;fill-opacity:1;fill-rule:nonzero;stroke:none"
           id="path102" />
      </g>
    </g>
  </g>
</svg>
